
        <svg xmlns="http://www.w3.org/2000/svg" xmlns:xlink="http://www.w3.org/1999/xlink" version="1.1" width="3187.5" height="1125" viewBox="0 0 3187.5 1125">
			
			<g transform="scale(9.375) translate(10, 10)">
				<defs id="SvgjsDefs2782"/><g id="SvgjsG2783" featureKey="symbolFeature-0" transform="matrix(1,0,0,1,0,0)" fill="#fff"><path xmlns="http://www.w3.org/2000/svg" d="M50,10c22.1,0,40,17.9,40,40S72.1,90,50,90S10,72.1,10,50S27.9,10,50,10 M50,0C22.4,0,0,22.4,0,50  s22.4,50,50,50s50-22.4,50-50S77.6,0,50,0L50,0z"/><polygon xmlns="http://www.w3.org/2000/svg" points="38.7,27.2 73.6,49.8 38.7,72.4 "/></g><g id="SvgjsG2784" featureKey="nameFeature-0" transform="matrix(2.0104544490308416,0,0,2.0104544490308416,113.72738186977233,-1.5170875283629002)" fill="#fff"><path d="M5.84 40 l-2.72 0 l0 -28.8 l4.16 0 l9.44 25.4 l0.08 0 l9.28 -25.4 l4.12 0 l0 28.8 l-2.72 0 l0 -25.68 l-0.08 0 l-9.44 25.68 l-2.56 0 l-9.48 -25.68 l-0.08 0 l0 25.68 z M44.44 40.56 c-5.28 -0.08 -9.6 -3.68 -9.6 -10.92 c0 -6.04 3.2 -10.92 9.6 -10.92 c6.48 0 9.6 4.84 9.6 10.92 c0 6.56 -3.8 10.92 -9.6 10.92 z M51.480000000000004 29.64 c-0.04 -4.88 -1.96 -8.76 -7.04 -8.76 c-5.04 0 -7.04 4.28 -7.04 8.76 c0 5.16 2.44 8.76 7.04 8.76 c5.04 0 7.04 -4.32 7.04 -8.76 z M64.16 40 l-7.92 -20.72 l2.6 0 l6.72 17.76 l6.72 -17.76 l2.6 0 l-8.04 20.72 l-2.68 0 z M81.2 40 l-2.4 0 l0 -20.72 l2.4 0 l0 20.72 z M81.32000000000001 14.760000000000002 l-2.64 0 l0 -3.56 l2.64 0 l0 3.56 z M86.28 33.519999999999996 l2.44 0 c0.76 3.56 2.6 4.88 6.2 4.88 c3.48 0 5.12 -1.84 5.12 -3.84 c0 -6 -13.28 -1.76 -13.28 -9.92 c0 -3.44 2.68 -5.92 7.28 -5.92 c4.48 0 7.4 1.84 8 6.52 l-2.44 0 c-0.44 -3.2 -2.6 -4.36 -5.6 -4.36 c-3.04 0 -4.68 1.44 -4.68 3.56 c0 5.64 13.28 2.12 13.28 10.08 c0 3.96 -3.56 6.04 -8.44 6.04 s-7.68 -3.12 -7.88 -7.04 z"/></g>
			</g>
		</svg>
	